<?xml version="1.0" standalone="no"?>
<!DOCTYPE svg PUBLIC "-//W3C//DTD SVG 20010904//EN"
 "http://www.w3.org/TR/2001/REC-SVG-20010904/DTD/svg10.dtd">
<svg version="1.0" xmlns="http://www.w3.org/2000/svg"
 width="3000.000000pt" height="3000.000000pt" viewBox="0 0 3000.000000 3000.000000"
 preserveAspectRatio="xMidYMid meet">

<g transform="translate(0.000000,3000.000000) scale(0.100000,-0.100000)"
fill="#000000" stroke="none">
<path d="M6782 23148 c-18 -18 -18 -16278 0 -16296 18 -18 16418 -18 16436 0
 18 18 18 16278 0 16296 -18 18 -16418 18 -16436 0z m8188 -4088 l0 -4000
-1831 0 c-1733 0 -1833 1 -1846 18 -45 57 -48 64 -30 77 15 11 11 12 -26 8
-51 -6 -72 11 -41 34 17 12 15 13 -13 7 -29 -6 -30 -4 -26 19 3 15 21 37 44
53 46 31 49 37 13 23 -15 -5 -29 -7 -32 -5 -2 3 30 103 73 223 110 310 232
555 383 772 49 69 144 207 212 306 185 270 231 328 379 475 74 74 218 227 319
340 187 207 500 530 514 530 19 0 3 -31 -57 -109 -36 -47 -63 -87 -60 -89 3
-3 27 9 55 26 27 17 50 27 50 21 0 -30 -36 -85 -87 -134 -60 -56 -57 -68 11
-40 20 8 36 12 36 8 0 -4 -30 -38 -67 -76 -67 -67 -67 -68 -29 -52 21 9 40 14
42 12 4 -4 -23 -59 -51 -102 l-20 -30 22 15 c12 8 43 30 69 49 l46 34 -7 -34
c-6 -31 -5 -33 9 -19 8 8 29 40 45 70 l31 55 0 -45 c0 -70 15 -81 34 -26 9 25
24 67 33 94 l18 47 5 -40 c5 -40 5 -40 33 45 17 52 33 132 40 207 8 68 17 126
21 130 4 5 17 -5 29 -22 l22 -30 5 55 5 55 22 -34 c14 -22 24 -59 28 -100 4
-36 11 -84 17 -106 l10 -39 24 39 24 40 -1 -55 c0 -30 -4 -79 -8 -107 -4 -29
-7 -53 -5 -53 1 0 17 25 35 55 50 82 67 33 29 -81 l-19 -59 34 39 c61 69 77
167 54 318 -13 81 -33 135 -83 212 -19 29 -42 68 -51 85 l-16 32 41 -21 41
-21 -21 41 c-11 22 -17 40 -13 40 5 0 46 -31 93 -69 47 -38 86 -68 88 -66 3 3
-22 61 -46 108 -2 4 3 4 12 1 9 -3 48 -51 88 -105 68 -94 96 -121 84 -81 -15
51 -18 77 -8 67 26 -24 108 -187 128 -255 l23 -75 0 95 c1 91 2 94 18 70 9
-13 31 -57 49 -98 48 -111 54 -62 18 152 -6 34 -5 38 9 30 9 -6 31 -32 49 -59
28 -44 33 -47 36 -27 2 12 -4 46 -14 75 -14 42 -33 68 -103 136 l-86 83 49 -6
c48 -6 49 -6 32 13 -10 11 -49 36 -87 56 -38 20 -69 39 -69 42 0 3 26 3 58 0
56 -6 56 -5 35 12 -11 10 -47 25 -80 35 -87 26 -101 33 -83 40 8 3 29 11 45
17 l30 12 -45 9 c-25 5 -66 6 -92 2 -71 -9 -59 28 12 43 29 5 31 7 15 14 -36
14 -79 9 -175 -21 -51 -17 -98 -30 -102 -30 -19 0 -5 17 37 43 25 16 45 31 45
34 0 13 -96 -9 -162 -37 -39 -17 -75 -27 -78 -23 -4 4 -20 59 -36 121 -19 74
-33 111 -41 108 -6 -3 -49 36 -95 86 -69 76 -84 88 -86 70 -2 -12 13 -59 32
-104 20 -45 34 -83 32 -85 -2 -2 -18 19 -35 46 -18 27 -51 67 -74 89 -72 66
-239 172 -272 172 -2 0 31 -34 75 -76 44 -42 80 -81 80 -85 0 -5 -19 2 -41 17
-90 56 -202 94 -284 94 l-49 0 71 -34 c104 -50 101 -56 -20 -56 -102 0 -248
-27 -271 -50 -12 -12 -19 -11 114 -14 58 -2 125 -9 150 -16 l45 -13 -93 -22
c-90 -22 -123 -35 -88 -35 56 0 364 -39 380 -48 18 -10 -22 -22 -79 -23 -33 0
-85 -4 -115 -8 -64 -8 -55 -12 70 -36 47 -8 114 -24 149 -34 76 -21 64 -31
-42 -32 -40 0 -81 -4 -92 -8 -17 -7 -15 -10 18 -20 54 -18 46 -31 -20 -32 -56
-1 -171 -15 -145 -18 28 -3 8 -19 -45 -35 -32 -10 -74 -27 -93 -37 -34 -18
-35 -18 -8 -19 48 0 40 -18 -29 -66 -105 -74 -103 -74 45 -15 73 29 81 26 43
-13 l-33 -34 68 19 c38 10 80 19 94 19 l25 0 -25 -20 c-28 -22 -17 -25 44 -10
45 10 76 1 54 -17 -7 -6 -38 -16 -68 -23 -30 -7 -93 -29 -140 -49 l-84 -36 37
-5 38 -5 -73 -57 c-92 -72 -157 -138 -137 -138 9 0 41 14 73 31 31 17 59 29
61 27 2 -2 -27 -40 -65 -85 -39 -45 -70 -84 -70 -86 0 -3 9 -3 20 0 22 6 26
-8 10 -36 -16 -30 -50 -121 -45 -121 2 0 38 44 78 98 71 92 127 154 127 138 0
-3 -7 -23 -15 -43 -8 -20 -13 -38 -10 -41 2 -3 34 23 71 57 36 34 68 60 70 58
2 -2 -2 -23 -10 -45 -9 -23 -11 -42 -6 -42 5 0 34 35 64 78 30 42 66 88 80
101 l25 23 -23 -68 c-48 -141 -39 -159 25 -55 28 45 55 71 110 108 97 66 139
87 139 72 0 -7 -143 -155 -317 -328 -175 -174 -383 -390 -462 -481 -80 -91
-197 -219 -261 -285 -96 -98 -140 -155 -244 -314 -71 -106 -162 -241 -204
-300 -159 -223 -293 -471 -443 -816 l-78 -180 -3 55 -3 55 -17 -89 c-9 -48
-19 -90 -21 -93 -9 -8 -57 21 -57 34 0 8 7 28 16 46 l16 32 -29 -28 -30 -27
-31 142 c-92 417 -141 905 -128 1278 13 380 80 968 141 1252 9 40 23 114 31
163 8 50 19 104 25 120 5 17 28 131 50 255 38 214 71 366 231 1070 75 331 193
804 208 829 22 40 25 -69 4 -146 -6 -23 -6 -23 31 -7 20 8 39 14 41 11 2 -2
-1 -41 -6 -88 -15 -130 -15 -131 30 -80 l38 44 6 -34 c4 -19 -2 -81 -12 -139
-11 -58 -18 -107 -16 -109 8 -9 27 16 57 72 l32 62 3 -84 c2 -73 -12 -188 -44
-351 l-7 -35 25 23 c31 28 70 107 93 187 10 33 19 62 22 65 10 11 23 -29 23
-74 0 -39 3 -47 12 -38 7 7 15 64 19 144 7 120 21 199 34 186 3 -3 10 -31 16
-64 17 -98 19 -102 36 -71 22 43 35 183 29 303 -4 61 -22 249 -41 419 -19 170
-33 311 -31 313 2 2 18 -34 36 -80 61 -159 90 -196 90 -116 0 62 16 37 39 -62
42 -181 55 -180 65 5 7 116 10 134 22 123 9 -10 35 -208 43 -338 4 -69 14
-138 21 -155 l13 -30 7 25 c4 14 13 70 20 125 7 55 16 106 20 114 9 18 38
-102 50 -212 5 -42 13 -85 19 -94 8 -16 10 -15 15 7 27 124 34 325 15 440 -32
201 -178 495 -310 629 -24 24 -83 70 -130 102 -47 32 -103 74 -125 93 l-39 35
28 1 c15 0 59 -16 98 -36 39 -19 82 -40 96 -45 24 -9 25 -9 18 31 -4 22 -3 40
1 40 4 0 59 -54 122 -120 96 -102 172 -166 172 -146 0 9 -132 209 -169 256
-19 25 -55 67 -80 94 -52 54 -37 51 62 -16 85 -57 181 -151 265 -258 72 -92
128 -149 146 -150 30 -1 -63 192 -158 325 -42 59 -74 110 -72 113 8 8 73 -47
127 -110 30 -34 109 -145 176 -247 l123 -186 0 46 c0 90 -73 274 -164 413 -30
48 -51 86 -45 86 33 0 225 -230 303 -362 44 -76 45 -69 4 62 -25 81 -152 288
-231 375 -70 78 -157 142 -249 183 -38 17 -68 35 -68 41 0 17 62 23 130 12 36
-6 80 -11 99 -11 l34 0 -23 25 c-14 14 -53 40 -88 57 -107 53 -249 50 -416 -8
-38 -13 -71 -23 -72 -21 -2 2 17 24 43 50 41 42 135 97 208 122 19 7 19 8 -5
18 -14 5 -59 10 -100 10 -85 0 -162 -25 -245 -78 -133 -84 -126 -67 9 25 121
82 139 105 74 95 -24 -3 -52 -9 -63 -11 -46 -11 33 41 140 91 108 52 185 75
247 75 65 0 10 21 -83 31 -52 6 -98 15 -102 19 -13 12 50 45 151 81 125 43
107 54 -90 54 -82 0 -148 1 -148 2 0 17 22 39 59 57 25 13 57 36 70 50 l24 26
-59 0 c-84 0 -148 -32 -210 -106 -27 -32 -69 -78 -94 -101 l-45 -43 -3 29 c-2
16 4 46 13 67 8 20 14 39 12 41 -10 9 -79 -82 -122 -161 -25 -47 -48 -86 -49
-86 -2 0 6 73 18 160 5 35 5 35 -28 -18 -19 -29 -49 -98 -67 -154 -18 -55 -34
-97 -36 -92 -2 5 -9 41 -16 79 l-13 70 -12 -40 c-7 -22 -15 -73 -19 -113 -5
-61 -8 -70 -20 -60 -11 9 -17 9 -24 -3 -6 -10 -9 -2 -9 26 -1 36 -2 38 -14 22
-8 -10 -17 -41 -21 -68 -4 -27 -11 -49 -16 -49 -4 0 -31 20 -58 44 -49 43 -57
48 -113 60 -32 7 -33 3 -13 -53 8 -22 12 -41 9 -41 -3 0 -33 25 -67 55 -62 56
-155 108 -214 120 -42 8 -41 0 2 -64 41 -60 59 -101 44 -101 -5 0 -12 7 -15
15 -10 26 -99 84 -168 110 -65 24 -116 32 -116 18 0 -4 20 -26 45 -49 25 -22
45 -47 45 -54 0 -18 -57 -7 -155 30 -44 16 -96 33 -115 36 l-35 5 63 -58 c34
-32 62 -60 62 -63 0 -3 -53 2 -117 12 -157 23 -208 22 -263 -3 l-45 -21 45
-21 c25 -11 64 -22 87 -25 55 -6 48 -16 -24 -31 -86 -18 -175 -49 -202 -70
l-24 -18 89 -13 c49 -7 105 -15 124 -19 l35 -7 -95 -56 c-111 -65 -226 -178
-182 -178 4 0 68 20 142 45 117 39 190 55 190 41 0 -2 -26 -29 -57 -60 -70
-68 -62 -70 88 -21 60 19 115 35 124 35 21 0 19 -23 -6 -54 -12 -15 -18 -30
-15 -33 3 -4 30 3 59 15 109 44 197 53 137 13 -14 -9 -38 -28 -55 -43 l-30
-27 95 -1 95 -1 -41 -39 c-23 -21 -39 -41 -36 -44 10 -11 59 -6 137 14 93 24
148 26 165 5 7 -8 28 -15 46 -15 59 0 37 -15 -56 -37 -95 -22 -283 -107 -367
-164 -26 -18 -76 -60 -110 -92 -54 -51 -61 -62 -52 -79 9 -16 6 -25 -14 -47
-41 -45 -127 -183 -127 -205 0 -3 14 -3 30 1 17 3 30 3 30 1 0 -3 -16 -76 -35
-163 -19 -87 -33 -160 -31 -162 2 -2 31 32 65 76 58 76 109 126 118 117 2 -2
-3 -30 -11 -62 -8 -32 -14 -60 -12 -62 2 -2 42 36 88 83 77 80 115 112 123
103 2 -2 -5 -28 -16 -58 -30 -86 -23 -89 42 -22 55 56 115 100 124 90 2 -2
-19 -44 -47 -93 -116 -208 -212 -424 -195 -441 3 -3 15 -1 26 6 12 6 21 8 21
5 0 -2 -13 -46 -29 -97 -16 -51 -32 -109 -36 -128 l-7 -35 31 29 31 30 1 -130
c1 -71 4 -154 8 -184 l7 -55 19 40 c10 22 28 91 40 153 13 62 25 116 28 119 3
3 6 -48 6 -112 1 -118 3 -141 23 -245 11 -53 11 -54 20 -25 5 17 18 84 28 150
24 151 31 185 39 185 4 0 15 -39 25 -87 10 -49 23 -92 27 -97 13 -14 28 38 35
117 3 40 8 88 11 107 l6 35 23 -50 23 -49 17 39 c10 23 19 77 22 128 2 48 8
87 12 87 4 0 14 -17 23 -37 l15 -38 1 55 c1 61 9 100 21 100 4 0 15 -28 25
-62 21 -77 33 -63 42 52 5 69 8 80 23 75 13 -4 20 9 34 65 10 38 22 67 27 64
5 -3 9 -12 9 -20 0 -53 57 34 67 101 3 28 16 59 30 76 55 65 54 36 -14 -261
-60 -265 -149 -697 -163 -795 -6 -44 -22 -120 -35 -170 -13 -49 -42 -182 -65
-295 -23 -113 -72 -338 -110 -500 -38 -162 -87 -385 -110 -495 -46 -223 -149
-825 -179 -1040 -28 -202 -45 -530 -37 -732 11 -299 65 -708 120 -925 18 -71
30 -130 28 -133 -3 -3 -37 -5 -75 -5 l-70 0 6 33 c3 17 9 47 13 66 5 23 4 32
-4 27 -6 -3 -13 -20 -17 -37 -4 -17 -8 -29 -10 -27 -2 2 -16 100 -30 218 -39
318 -92 642 -137 840 -34 149 -132 491 -168 584 -5 15 -38 128 -71 249 -91
333 -110 385 -219 606 -55 111 -145 308 -200 436 -139 326 -174 398 -282 591
-128 227 -398 770 -398 800 0 19 33 -13 115 -111 103 -124 107 -132 131 -236
8 -38 24 -79 34 -91 19 -23 19 -22 20 122 0 100 3 140 10 130 6 -8 30 -78 55
-155 25 -78 51 -150 60 -160 13 -18 14 -14 15 50 1 65 2 69 16 50 9 -11 32
-51 51 -90 20 -38 44 -81 54 -94 l19 -24 0 74 1 74 28 -55 c16 -30 52 -122 81
-205 29 -82 55 -152 58 -155 5 -6 -6 169 -15 218 l-6 34 32 -16 c17 -9 31 -14
31 -12 0 3 -23 61 -51 128 -77 187 -73 173 -52 157 10 -8 45 -42 78 -76 33
-35 66 -63 73 -63 17 0 -66 157 -143 272 -30 45 -53 84 -51 86 2 2 18 -4 36
-13 17 -9 36 -15 42 -13 17 6 -146 153 -213 193 -139 81 -152 137 -13 60 34
-19 65 -35 69 -35 3 0 -3 13 -14 29 -12 16 -21 32 -21 36 0 16 60 -10 128 -56
40 -27 75 -49 77 -49 3 0 -8 27 -25 61 -37 72 -29 70 81 -22 134 -112 156
-118 73 -19 -30 36 -64 82 -75 103 l-20 38 48 -6 48 -7 -45 41 c-25 23 -71 59
-102 81 -68 48 -76 58 -49 68 16 6 -8 18 -109 57 -72 27 -130 53 -130 56 0 4
23 10 52 14 l52 7 -22 19 c-13 10 -67 32 -120 49 -53 18 -104 36 -112 41 -22
13 237 10 358 -5 117 -13 118 -5 3 38 -36 14 -99 38 -140 53 -41 16 -76 34
-79 41 -5 17 71 10 283 -28 88 -16 180 -32 205 -35 42 -6 44 -5 25 10 -11 9
-62 39 -112 68 -51 29 -93 56 -93 60 0 18 210 -17 294 -48 116 -44 138 -30 53
33 -85 64 -148 89 -389 159 -47 14 7 35 135 54 47 7 75 15 69 21 -5 5 -49 16
-98 25 -75 14 -103 15 -179 5 -49 -7 -119 -21 -154 -32 -36 -10 -66 -18 -68
-16 -8 7 76 62 171 113 l101 54 -57 -5 c-68 -7 -267 -75 -359 -123 -37 -19
-99 -63 -138 -99 -40 -35 -74 -64 -78 -64 -3 0 10 19 29 43 94 115 148 198
148 227 0 5 -63 -32 -140 -82 -108 -70 -143 -88 -153 -79 -11 8 -21 -2 -47
-49 -18 -32 -37 -57 -42 -54 -4 3 -8 22 -9 42 l-1 37 -15 -42 c-8 -24 -19 -43
-24 -43 -5 0 -9 53 -9 118 0 134 -11 167 -35 110 -8 -21 -15 -43 -15 -50 -1
-7 -7 -24 -14 -37 -12 -22 -14 -17 -30 70 -10 52 -24 105 -31 119 -14 24 -14
23 -15 -27 0 -29 -3 -53 -7 -53 -5 0 -27 28 -51 63 -23 34 -53 76 -67 92 l-24
30 24 -70 c14 -38 25 -90 25 -114 l0 -45 -27 25 c-57 51 -57 45 -4 -61 29 -59
52 -113 50 -119 -3 -8 -21 1 -49 23 -42 33 -70 45 -70 30 0 -4 14 -29 30 -56
36 -59 37 -62 5 -54 -24 6 -21 1 25 -58 27 -35 50 -66 50 -70 0 -12 -38 9
-125 69 -118 82 -146 95 -196 95 l-42 0 41 -30 c39 -28 72 -70 55 -70 -4 0
-43 11 -86 25 -43 14 -97 25 -119 25 l-42 0 52 -37 c28 -21 52 -40 52 -43 0
-3 -42 -5 -93 -5 -93 0 -201 -22 -175 -35 7 -4 38 -13 68 -20 30 -7 59 -15 64
-18 5 -3 -36 -15 -91 -28 -149 -33 -218 -74 -123 -72 28 1 55 -3 61 -9 13 -13
-46 -52 -146 -97 -88 -41 -144 -95 -185 -181 -17 -35 -30 -66 -30 -69 0 -12
44 17 89 59 46 42 81 62 81 46 0 -4 -20 -50 -44 -102 -51 -112 -79 -191 -74
-218 2 -15 17 -1 62 59 60 80 122 147 130 139 2 -2 -11 -51 -29 -109 -46 -141
-43 -160 8 -67 42 77 217 285 258 307 18 10 17 6 -8 -42 -37 -70 -36 -68 -25
-68 6 0 65 45 132 100 67 55 131 105 141 111 41 22 37 2 -11 -54 -44 -51 -59
-77 -46 -77 2 0 64 29 139 64 74 35 138 62 141 58 4 -3 -15 -27 -41 -54 -26
-26 -45 -48 -43 -48 3 0 30 7 60 15 30 8 55 13 57 12 1 -2 -53 -59 -120 -128
-136 -138 -171 -192 -227 -359 -44 -128 -51 -233 -21 -321 34 -102 39 -101 38
12 -2 84 2 111 17 138 22 41 25 36 51 -66 11 -40 20 -71 22 -70 1 2 11 53 22
113 10 60 25 123 32 139 l12 30 10 -52 c5 -29 13 -53 17 -53 13 0 44 60 85
162 25 64 49 108 71 129 19 18 36 30 38 28 3 -3 -2 -31 -10 -63 -8 -32 -13
-60 -10 -63 2 -3 20 7 39 21 19 14 37 26 40 26 12 0 8 -41 -14 -150 -33 -169
-41 -258 -33 -360 l7 -95 14 43 c8 23 19 42 24 42 5 0 9 -53 9 -117 0 -135 11
-168 35 -111 8 21 15 43 15 50 1 7 7 24 14 37 13 23 14 20 25 -45 7 -38 19
-91 29 -119 l17 -50 5 59 5 58 52 -73 c94 -133 97 -135 68 -52 -14 40 -25 91
-25 113 l0 41 43 -35 44 -36 -55 109 c-30 60 -52 115 -50 121 2 7 22 -3 48
-24 41 -33 70 -45 70 -30 0 3 -23 45 -52 92 -47 79 -52 94 -55 157 -4 78 -8
79 60 -9 15 -19 36 -40 47 -46 18 -10 17 -3 -11 72 -71 189 -90 263 -66 255
21 -6 240 -447 408 -822 187 -414 228 -502 339 -715 44 -85 98 -200 119 -255
35 -91 177 -544 281 -900 77 -264 131 -549 150 -785 5 -74 17 -202 25 -285 30
-320 48 -555 42 -561 -4 -4 -27 1 -52 11 -69 26 -66 11 4 -24 35 -18 61 -38
61 -47 0 -9 -5 -12 -12 -8 -10 6 -10 4 0 -7 24 -26 12 -32 -60 -26 l-73 6 43
-19 44 -20 -52 -35 -52 -35 -1544 0 -1544 0 0 4000 0 4000 4050 0 4050 0 0
-4000z m8168 3 l-3 -3998 -4027 -3 -4028 -2 0 4000 0 4000 4030 0 4030 0 -2
-3997z m-15098 -4145 c0 -13 0 -565 0 -1227 l0 -1205 -39 -55 c-105 -152 -136
-202 -181 -290 -242 -484 -218 -1048 61 -1428 24 -32 69 -85 100 -118 31 -33
58 -69 59 -80 1 -11 2 -820 1 -1797 l-1 -1778 -585 0 -585 0 0 4000 0 4000
585 0 585 0 0 -22z m5658 -1080 c1 -604 -2 -1098 -6 -1098 -4 0 -18 21 -31 48
-13 26 -48 89 -78 141 l-55 93 -18 -38 c-9 -22 -103 -227 -209 -457 -105 -230
-191 -422 -191 -427 0 -5 37 -58 81 -117 228 -303 355 -547 366 -703 3 -53 1
-71 -16 -97 -63 -100 -356 -189 -846 -257 -219 -31 -728 -80 -1040 -101 -653
-44 -1553 -35 -2075 20 -682 73 -1142 275 -1355 596 -88 131 -85 114 -85 518
l0 356 31 120 c16 66 46 172 65 236 19 64 34 120 34 125 0 7 -42 -48 -115
-151 -12 -17 -14 137 -14 1138 l-1 1157 2778 -2 2777 -3 3 -1097z m1272 -2898
l0 -4000 -590 0 -590 0 0 1782 0 1781 30 46 c129 202 200 534 200 936 0 308
-54 582 -180 917 l-50 131 0 1204 0 1203 590 0 590 0 0 -4000z m8168 -2 l2
-3998 -4030 0 -4030 0 0 4000 0 4000 4028 -2 4027 -3 3 -3997z m-14896 -559
c289 -190 733 -337 1238 -408 370 -52 677 -71 1169 -71 682 1 1395 72 2086
209 472 94 712 161 874 247 46 24 85 44 87 44 2 0 4 -778 4 -1730 l0 -1730
-2780 0 -2780 0 0 1750 c0 963 2 1750 5 1750 2 0 46 -27 97 -61z"/>
<path d="M18990 21773 c-439 -18 -892 -148 -1268 -364 -497 -285 -888 -703
-1137 -1214 -128 -263 -210 -529 -256 -826 -30 -190 -33 -591 -6 -767 69 -459
209 -829 450 -1192 200 -301 485 -586 784 -783 667 -440 1471 -576 2248 -381
557 140 1081 469 1452 913 359 431 577 936 644 1496 19 157 16 510 -5 665 -57
420 -190 790 -409 1140 -220 352 -572 699 -919 907 -437 261 -875 389 -1388
406 -63 2 -149 2 -190 0z m-136 -626 c77 -35 118 -69 160 -130 52 -77 70 -152
63 -262 -10 -162 -55 -266 -301 -704 -248 -439 -301 -584 -270 -740 10 -50 76
-117 142 -142 56 -22 71 -23 586 -29 291 -4 541 -4 555 0 25 7 23 10 -74 107
-203 202 -389 283 -624 271 -118 -6 -213 -40 -324 -117 -89 -62 -111 -63 -115
-7 -7 80 55 232 130 319 46 54 162 129 244 158 147 52 370 39 549 -31 259
-102 485 -324 629 -617 55 -113 100 -238 93 -258 -10 -24 -41 -18 -105 20 -57
34 -225 85 -238 72 -4 -3 10 -45 31 -92 29 -69 34 -89 25 -100 -10 -13 -61
-15 -299 -16 -299 0 -480 -10 -543 -29 -49 -14 -123 -71 -123 -94 0 -21 -14
-15 340 -139 319 -112 317 -112 313 -139 -3 -19 -42 -39 -268 -133 -146 -61
-308 -130 -361 -154 l-96 -42 -6 -292 c-4 -161 -7 -454 -8 -652 -1 -198 -4
-398 -7 -445 -6 -78 -9 -85 -29 -88 -17 -3 -24 3 -29 24 -4 16 -4 340 -1 721
5 467 3 693 -3 693 -6 0 -57 -23 -113 -50 -211 -104 -243 -147 -261 -347 -11
-124 -21 -151 -52 -139 -15 6 -16 20 -12 134 10 233 47 285 294 410 l151 76 7
205 c3 113 11 226 17 250 7 34 7 47 -3 56 -7 7 -76 33 -153 60 -269 91 -405
163 -494 261 -91 99 -125 203 -125 374 1 87 5 119 28 188 38 116 168 366 334
644 158 264 222 386 222 421 0 52 -55 86 -118 73 -29 -7 -27 -3 -212 -316
-102 -173 -123 -200 -156 -200 -42 0 -54 34 -54 152 0 155 16 247 54 310 41
70 130 118 219 118 72 0 90 9 122 64 42 71 25 104 -26 50 -70 -75 -167 -64
-193 23 -26 86 100 232 233 270 70 20 188 10 255 -20z"/>
<path d="M18603 21091 c-60 -21 -126 -63 -147 -96 -23 -35 -30 -73 -16 -90 19
-23 37 -18 67 16 33 37 84 62 110 52 63 -22 79 -82 43 -153 -26 -51 -25 -60 5
-60 43 0 94 -27 115 -62 46 -72 23 -129 -214 -533 -192 -327 -286 -504 -322
-610 -24 -70 -28 -95 -28 -200 0 -101 3 -129 22 -176 70 -175 178 -249 570
-389 l143 -51 64 59 c112 106 116 106 548 110 247 2 367 7 367 14 0 5 -12 33
-26 62 -47 95 9 86 -563 86 -278 0 -546 5 -596 10 -119 14 -200 52 -255 121
-46 58 -61 107 -61 193 0 145 62 292 321 751 186 330 241 453 258 580 29 214
-104 386 -297 385 -31 -1 -79 -9 -108 -19z"/>
<path d="M18406 20684 c-55 -20 -106 -61 -121 -98 -8 -18 -16 -72 -20 -122 -3
-49 -8 -110 -11 -136 -6 -60 8 -62 37 -5 12 23 64 112 115 199 52 86 94 161
94 167 0 15 -47 13 -94 -5z"/>
<path d="M19160 19830 c-92 -9 -157 -34 -237 -88 -76 -51 -119 -101 -161 -186
-47 -94 -41 -102 38 -55 206 125 485 116 739 -25 101 -57 184 -127 284 -244
l86 -100 63 -7 c85 -9 173 -31 204 -52 27 -17 27 -17 19 7 -4 14 -32 74 -63
134 -213 418 -588 657 -972 616z"/>
<path d="M18988 18613 c-13 -32 -25 -413 -13 -413 4 0 119 47 254 104 135 58
269 114 296 124 32 13 45 22 35 26 -77 30 -537 186 -547 186 -8 0 -19 -12 -25
-27z"/>
<path d="M19259 13512 c-63 -4 -84 -28 -81 -91 1 -26 -2 -60 -7 -77 -6 -21 -4
-41 5 -63 16 -37 18 -53 5 -32 -8 12 -10 -58 -9 -259 0 -30 0 -64 -1 -75 -8
-119 8 -243 32 -249 100 -27 120 -29 134 -10 7 10 13 14 13 9 0 -5 7 0 15 11
12 16 14 82 14 396 0 208 -4 389 -9 402 -11 29 -49 42 -111 38z"/>
<path d="M17870 13263 c-59 -25 -69 -39 -64 -91 3 -26 15 -62 28 -82 38 -56
116 -188 116 -196 0 -4 6 -15 14 -23 8 -9 28 -44 45 -78 17 -34 35 -64 40 -67
5 -3 21 -29 36 -58 15 -29 33 -60 41 -69 8 -8 14 -20 14 -25 0 -18 72 -99 94
-105 37 -10 93 18 105 53 15 42 14 103 -1 116 -7 6 -22 34 -33 62 -11 29 -26
55 -32 57 -7 3 -13 14 -13 25 0 10 -11 30 -24 43 -14 13 -27 33 -31 44 -3 11
-17 39 -30 63 -14 24 -29 53 -35 66 -5 12 -14 22 -20 22 -5 0 -10 7 -10 15 0
9 -7 18 -15 21 -8 4 -15 13 -15 22 0 8 -11 29 -23 46 -13 17 -32 48 -42 69
-20 42 -68 87 -93 86 -9 0 -33 -7 -52 -16z"/>
<path d="M20416 13139 c-14 -11 -35 -36 -47 -57 -13 -20 -31 -46 -41 -56 -10
-11 -18 -25 -18 -32 0 -7 -7 -19 -15 -28 -9 -8 -23 -32 -31 -53 -9 -21 -30
-58 -48 -83 -17 -25 -40 -63 -51 -85 -11 -22 -23 -41 -27 -43 -5 -2 -8 -11 -8
-21 0 -9 -14 -30 -30 -46 -19 -18 -28 -35 -25 -46 3 -9 -1 -19 -8 -22 -8 -3
-22 -29 -31 -57 -17 -51 -17 -52 9 -95 30 -52 35 -56 80 -59 27 -3 40 3 62 26
26 27 70 99 109 178 10 19 28 48 41 63 13 16 23 33 23 38 0 6 18 37 40 69 22
33 43 68 47 77 4 10 25 50 48 88 59 100 85 161 85 194 0 58 -111 92 -164 50z"/>
<path d="M19208 12375 c-6 -6 -127 -16 -180 -15 -15 0 -29 -4 -33 -10 -3 -5
-19 -7 -35 -3 -32 6 -152 -22 -186 -44 -11 -7 -31 -12 -45 -11 -27 1 -130 -44
-148 -66 -6 -8 -37 -24 -69 -37 -31 -12 -64 -27 -72 -33 -8 -6 -31 -20 -50
-30 -133 -72 -382 -311 -470 -451 -30 -48 -65 -100 -78 -116 -13 -16 -21 -33
-18 -38 5 -8 -19 -91 -43 -146 -19 -46 -61 -236 -61 -279 0 -25 -5 -67 -10
-93 -7 -33 -7 -64 0 -98 5 -27 17 -91 25 -142 15 -99 48 -231 63 -260 6 -10
19 -45 31 -77 11 -32 27 -66 35 -75 7 -9 17 -26 20 -38 4 -12 24 -37 45 -56
21 -19 62 -63 91 -98 29 -35 64 -75 79 -89 85 -78 168 -147 195 -162 54 -30
134 -68 142 -68 4 0 15 -6 23 -14 9 -7 42 -21 73 -31 32 -10 63 -24 69 -31 6
-8 20 -14 31 -14 12 0 17 -4 12 -12 -5 -7 -2 -9 7 -6 16 6 126 -18 144 -31 6
-4 33 -9 60 -10 76 -2 125 -12 125 -23 0 -6 22 -7 63 -2 34 4 91 8 127 10 96
3 223 14 240 21 8 3 33 9 55 13 80 16 210 52 222 62 7 5 22 7 35 3 13 -4 18
-3 11 2 -7 5 11 15 50 27 72 23 163 70 261 135 80 53 127 96 181 166 22 28 45
55 51 60 6 6 37 55 69 110 32 55 67 111 77 124 10 13 18 34 18 46 0 12 7 28
15 35 8 7 15 25 15 40 0 15 8 38 18 51 11 13 22 46 25 73 4 27 12 55 18 63 19
22 15 455 -4 523 -9 30 -21 87 -27 125 -7 39 -19 97 -27 130 -16 64 -83 228
-95 233 -5 2 -8 8 -8 13 0 6 5 7 12 3 7 -5 8 -3 4 5 -5 7 -11 10 -14 7 -3 -4
-20 20 -38 52 -18 31 -50 76 -72 98 -24 24 -42 52 -44 70 -2 24 -8 29 -29 29
-17 1 -57 24 -105 60 -43 33 -87 65 -98 70 -12 6 -39 22 -61 36 -36 23 -179
87 -265 119 -19 7 -39 17 -44 22 -6 4 -20 8 -31 8 -12 0 -41 6 -66 14 -119 37
-160 46 -229 51 -42 3 -78 3 -82 0z m435 -376 c21 -10 43 -19 50 -19 7 0 17
-10 22 -22 6 -13 19 -24 30 -26 44 -7 77 -26 91 -53 8 -16 20 -29 27 -29 15 0
97 -90 97 -106 0 -7 7 -14 15 -18 8 -3 15 -12 15 -20 0 -7 7 -16 15 -20 8 -3
15 -12 15 -21 0 -8 5 -15 10 -15 6 0 10 -11 10 -24 0 -13 3 -26 8 -28 20 -8
72 -89 72 -111 0 -13 10 -37 22 -53 14 -17 21 -38 19 -57 -1 -16 4 -36 13 -46
24 -27 46 -87 46 -129 0 -21 5 -43 11 -49 8 -8 8 -21 -1 -48 -12 -36 -11 -55
8 -128 7 -24 7 -39 0 -43 -6 -4 -8 -22 -5 -40 3 -19 1 -36 -4 -40 -5 -3 -9
-38 -9 -77 1 -104 -9 -156 -32 -168 -12 -6 -18 -19 -17 -32 3 -25 -9 -67 -19
-67 -7 0 -28 -38 -46 -80 -23 -52 -65 -122 -65 -108 -1 9 13 43 29 75 17 31
30 63 30 70 0 8 9 39 20 70 11 32 20 74 20 94 0 20 8 51 18 70 14 28 17 59 16
174 -2 206 -18 367 -39 385 -7 6 -16 34 -20 63 -7 51 -74 218 -100 247 -7 8
-20 31 -30 50 -10 19 -24 42 -31 50 -24 26 -94 119 -94 125 0 9 -34 39 -75 66
-22 15 -57 43 -77 63 -20 20 -40 36 -43 36 -3 0 -28 11 -57 25 -28 14 -65 25
-80 25 -18 0 -27 4 -23 10 9 15 91 2 138 -21z m-923 -153 c0 -3 -4 -8 -10 -11
-5 -3 -10 -1 -10 4 0 6 5 11 10 11 6 0 10 -2 10 -4z m1156 -447 c32 -47 76
-172 81 -229 2 -19 6 -58 9 -86 5 -46 3 -52 -19 -67 l-24 -16 -7 61 c-3 33 -3
64 0 69 6 10 -13 120 -29 164 -5 17 -17 38 -25 47 -7 9 -11 25 -8 36 4 11 -1
29 -12 43 -10 13 -31 42 -47 64 l-28 40 40 -41 c22 -23 53 -61 69 -85z m-1884
-483 c-3 -100 0 -137 10 -147 13 -14 58 -134 58 -156 0 -7 15 -33 33 -57 17
-24 51 -75 75 -113 24 -39 53 -79 65 -90 12 -11 51 -54 87 -95 36 -41 83 -87
104 -104 42 -31 152 -111 183 -132 16 -11 13 -11 -17 -6 -19 3 -46 17 -61 30
-14 13 -35 24 -46 24 -12 0 -41 18 -65 40 -24 21 -67 58 -95 81 -30 24 -53 51
-53 61 0 10 -6 21 -14 24 -7 3 -29 28 -47 55 -19 27 -42 52 -51 55 -10 3 -18
10 -18 16 0 21 -35 84 -67 121 -18 20 -33 46 -33 56 0 11 -4 22 -9 26 -6 3
-10 13 -10 23 0 9 -9 44 -21 77 -11 33 -23 92 -26 130 -3 39 -8 89 -11 111 -3
25 0 44 6 48 6 4 11 18 11 32 0 13 3 24 8 24 4 0 6 -60 4 -134z m1949 40 c9
-19 7 -37 -10 -87 -27 -81 -45 -109 -37 -59 3 19 8 65 12 103 7 70 17 83 35
43z m-1751 4 c0 -5 -4 -10 -10 -10 -5 0 -10 5 -10 10 0 6 5 10 10 10 6 0 10
-4 10 -10z m85 -190 l7 -45 -21 24 c-23 27 -23 27 -15 59 9 32 20 16 29 -38z
m45 -118 c16 -32 39 -76 50 -99 12 -24 27 -43 35 -43 8 0 28 -18 46 -40 18
-22 63 -58 102 -82 38 -23 65 -44 59 -46 -14 -4 -105 42 -121 62 -8 9 -20 16
-28 16 -7 0 -16 7 -20 15 -3 9 -18 22 -34 30 -15 8 -31 25 -35 37 -3 12 -20
40 -36 62 -48 67 -87 169 -57 151 6 -4 23 -32 39 -63z m1230 -667 c-7 -8 -18
-15 -25 -15 -7 0 -29 -11 -49 -25 -56 -38 -176 -33 -176 7 0 4 7 5 14 2 18 -7
122 22 152 41 37 24 89 34 92 18 2 -8 -2 -20 -8 -28z"/>
<path d="M16993 12324 c-4 -11 -17 -27 -30 -37 -18 -14 -23 -27 -21 -54 3 -43
32 -73 119 -120 114 -62 124 -68 152 -90 16 -13 33 -23 38 -23 6 0 36 -17 67
-38 31 -21 82 -51 112 -66 30 -15 93 -47 140 -72 88 -46 129 -54 149 -30 19
23 24 83 11 130 -10 38 -20 49 -70 80 -31 19 -69 40 -83 45 -15 6 -27 15 -27
20 0 5 -15 14 -32 21 -32 12 -108 58 -118 71 -3 4 -25 16 -50 28 -25 12 -53
26 -62 31 -10 6 -26 14 -35 19 -10 6 -48 28 -84 51 -80 49 -164 65 -176 34z"/>
<path d="M21228 12287 c-7 -7 -33 -21 -57 -31 -24 -9 -55 -26 -69 -37 -14 -10
-30 -19 -37 -19 -6 0 -22 -11 -35 -25 -13 -13 -44 -32 -69 -41 -25 -10 -50
-22 -56 -27 -7 -7 -5 -7 4 -2 9 5 12 4 7 -3 -4 -7 -16 -12 -26 -12 -10 0 -25
-6 -32 -14 -8 -7 -23 -16 -35 -20 -12 -4 -24 -13 -27 -21 -3 -8 -14 -15 -25
-15 -11 0 -22 -4 -26 -9 -3 -6 -25 -20 -50 -32 -53 -27 -106 -79 -106 -105 0
-10 6 -40 13 -66 21 -80 71 -85 180 -19 37 23 70 41 74 41 3 0 20 10 37 22 29
21 44 29 159 92 29 16 73 43 98 60 25 17 71 44 102 61 70 37 144 97 150 123 8
30 -20 80 -55 97 -37 18 -101 20 -119 2z"/>
<path d="M20915 11130 c-45 -7 -110 -33 -118 -46 -2 -5 -8 -32 -11 -59 -8 -54
6 -82 49 -100 30 -12 747 -8 794 5 53 14 64 30 56 79 -5 29 -17 50 -46 76 -45
40 -17 38 -406 39 -133 1 -245 4 -249 9 -8 8 -11 8 -69 -3z"/>
<path d="M16735 11120 c-5 -6 -26 -25 -45 -43 -37 -34 -60 -69 -60 -89 0 -7
19 -26 41 -42 l40 -28 375 0 c348 1 377 2 407 19 27 16 32 25 34 58 1 44 -28
88 -75 113 -24 13 -268 18 -592 13 -25 -1 -61 1 -80 4 -19 2 -39 0 -45 -5z"/>
<path d="M20573 10217 c-34 -35 -41 -48 -36 -68 10 -36 51 -77 113 -110 57
-30 63 -34 146 -86 28 -18 55 -33 59 -33 4 0 32 -16 62 -36 29 -19 75 -45 101
-56 26 -11 63 -34 83 -49 20 -16 40 -29 44 -29 3 0 31 -12 61 -26 57 -27 103
-29 114 -4 4 8 12 25 18 37 29 57 2 123 -64 156 -17 9 -37 23 -44 32 -8 10
-51 34 -95 55 -45 21 -94 49 -111 63 -36 30 -139 87 -159 87 -8 0 -18 6 -22
14 -4 8 -24 21 -43 31 -19 9 -55 27 -80 41 -65 36 -97 31 -147 -19z"/>
<path d="M17644 10179 c-3 -6 -26 -20 -50 -31 -24 -10 -44 -23 -44 -28 0 -5
-18 -14 -41 -20 -22 -6 -42 -17 -45 -24 -3 -8 -26 -24 -52 -37 -26 -13 -59
-31 -74 -41 -14 -10 -31 -18 -37 -18 -14 0 -73 -40 -84 -57 -4 -7 -17 -13 -27
-13 -10 0 -22 -5 -25 -10 -4 -6 -25 -20 -48 -31 -23 -12 -56 -35 -74 -52 -29
-27 -32 -35 -28 -74 6 -58 20 -82 53 -89 15 -3 35 -8 44 -10 17 -5 68 19 146
69 23 15 62 37 85 49 23 12 49 27 57 33 8 7 47 29 85 50 39 20 84 47 100 60
17 12 50 32 75 45 94 48 160 104 160 136 0 36 -32 84 -57 84 -12 0 -25 5 -28
10 -8 14 -82 13 -91 -1z"/>
<path d="M20000 9690 c-8 -5 -28 -11 -43 -15 -29 -6 -47 -37 -47 -78 1 -25 13
-49 85 -169 68 -115 75 -127 117 -206 21 -39 42 -73 48 -77 6 -3 17 -21 25
-38 15 -32 22 -44 59 -102 55 -86 72 -108 99 -121 27 -14 31 -14 65 9 28 18
40 36 51 71 13 46 13 48 -25 124 -22 42 -44 82 -50 87 -6 6 -17 25 -24 43 -7
17 -16 32 -19 32 -4 0 -27 39 -52 88 -24 48 -50 91 -56 95 -7 4 -13 15 -13 23
0 8 -7 17 -15 20 -8 4 -15 14 -15 24 0 9 -13 33 -30 51 -16 19 -30 41 -30 50
0 22 -78 99 -99 98 -9 0 -23 -4 -31 -9z"/>
<path d="M18344 9562 c-14 -8 -88 -124 -108 -168 -8 -17 -22 -36 -30 -44 -9
-7 -16 -20 -16 -29 0 -9 -18 -41 -40 -71 -58 -81 -75 -117 -61 -133 8 -11 6
-13 -12 -13 -16 1 -23 -6 -25 -22 -2 -13 -12 -33 -23 -45 -48 -53 -53 -60 -41
-53 6 4 12 3 12 -3 0 -5 -7 -14 -16 -19 -18 -10 -43 -75 -44 -114 0 -19 8 -33
28 -45 15 -10 32 -24 38 -32 14 -18 73 -8 106 18 13 11 36 43 52 73 15 29 40
73 55 98 14 25 35 60 46 78 11 18 35 57 54 85 18 29 44 75 58 102 13 28 35 68
48 90 91 152 97 202 27 231 -20 8 -42 12 -49 10 -7 -3 -15 -1 -18 4 -7 12 -26
13 -41 2z"/>
<path d="M19220 9355 c-42 -43 -47 -76 -46 -284 1 -88 -2 -157 -5 -155 -11 6
0 -88 12 -102 14 -17 19 -83 8 -90 -5 -3 -7 -24 -5 -47 3 -23 5 -54 5 -69 1
-30 48 -85 92 -107 23 -11 30 -11 52 4 43 28 41 5 47 500 4 341 -6 385 -83
385 -36 0 -49 -6 -77 -35z"/>
<path d="M10357 9093 c-31 -54 -120 -216 -200 -360 l-144 -261 519 -302 c285
-167 520 -301 522 -299 12 14 416 710 416 716 -1 8 -1041 603 -1053 603 -3 0
-30 -44 -60 -97z"/>
</g>
</svg>
